HIERARCHY
ROOT mixamorig:Hips
{
	OFFSET -0.000007 99.791939 0.000048
	CHANNELS 6 Xposition Yposition Zposition Xrotation Yrotation Zrotation
	JOINT mixamorig:Spine
	{
		OFFSET -0.000008 9.923462 -1.227335
		CHANNELS 3 Xrotation Yrotation Zrotation
		JOINT mixamorig:Spine1
		{
			OFFSET -0.001162 11.645439 -1.422341
			CHANNELS 3 Xrotation Yrotation Zrotation
			JOINT mixamorig:Spine2
			{
				OFFSET -0.001082 13.360199 -1.626459
				CHANNELS 3 Xrotation Yrotation Zrotation
				JOINT mixamorig:Neck
				{
					OFFSET -0.001294 15.032486 0.792904
					CHANNELS 3 Xrotation Yrotation Zrotation
					JOINT mixamorig:Head
					{
						OFFSET -0.000902 10.321838 3.142429
						CHANNELS 3 Xrotation Yrotation Zrotation
						JOINT mixamorig:HeadTop_End
						{
							OFFSET -0.001464 18.474670 6.636400
							CHANNELS 3 Xrotation Yrotation Zrotation
							End Site
							{
								OFFSET -0.001724 19.630463 0.000000
							}
						}
					}
				}
				JOINT mixamorig:LeftShoulder
				{
					OFFSET 6.105025 9.110947 0.705547
					CHANNELS 3 Xrotation Yrotation Zrotation
					JOINT mixamorig:LeftArm
					{
						OFFSET 12.655060 -0.264816 -2.600928
						CHANNELS 3 Xrotation Yrotation Zrotation
						JOINT mixamorig:LeftForeArm
						{
							OFFSET 27.404680 0.002457 -0.000007
							CHANNELS 3 Xrotation Yrotation Zrotation
							JOINT mixamorig:LeftHand
							{
								OFFSET 27.614456 0.002457 0.000007
								CHANNELS 3 Xrotation Yrotation Zrotation
								JOINT mixamorig:LeftHandThumb1
								{
									OFFSET 3.789009 -2.166824 3.002973
									CHANNELS 3 Xrotation Yrotation Zrotation
									JOINT mixamorig:LeftHandThumb2
									{
										OFFSET 3.675636 -2.121704 2.122010
										CHANNELS 3 Xrotation Yrotation Zrotation
										JOINT mixamorig:LeftHandThumb3
										{
											OFFSET 3.394531 -1.959473 1.959746
											CHANNELS 3 Xrotation Yrotation Zrotation
											JOINT mixamorig:LeftHandThumb4
											{
												OFFSET 2.679504 -1.546753 1.546951
												CHANNELS 3 Xrotation Yrotation Zrotation
												End Site
												{
													OFFSET 2.400604 -1.530380 1.964751
												}
											}
										}
									}
								}
								JOINT mixamorig:LeftHandIndex1
								{
									OFFSET 12.266647 -0.230743 2.822040
									CHANNELS 3 Xrotation Yrotation Zrotation
									JOINT mixamorig:LeftHandIndex2
									{
										OFFSET 3.891968 0.000336 0.000037
										CHANNELS 3 Xrotation Yrotation Zrotation
										JOINT mixamorig:LeftHandIndex3
										{
											OFFSET 3.415161 0.000305 -0.000010
											CHANNELS 3 Xrotation Yrotation Zrotation
											JOINT mixamorig:LeftHandIndex4
											{
												OFFSET 3.077995 0.000275 -0.000009
												CHANNELS 3 Xrotation Yrotation Zrotation
												End Site
												{
													OFFSET 3.077988 0.000259 0.000131
												}
											}
										}
									}
								}
								JOINT mixamorig:LeftHandMiddle1
								{
									OFFSET 12.775536 0.001129 0.000014
									CHANNELS 3 Xrotation Yrotation Zrotation
									JOINT mixamorig:LeftHandMiddle2
									{
										OFFSET 3.613968 0.000320 0.000000
										CHANNELS 3 Xrotation Yrotation Zrotation
										JOINT mixamorig:LeftHandMiddle3
										{
											OFFSET 3.459763 0.000305 -0.000028
											CHANNELS 3 Xrotation Yrotation Zrotation
											JOINT mixamorig:LeftHandMiddle4
											{
												OFFSET 3.680191 0.000320 0.000031
												CHANNELS 3 Xrotation Yrotation Zrotation
												End Site
												{
													OFFSET 3.680191 0.000351 -0.004814
												}
											}
										}
									}
								}
								JOINT mixamorig:LeftHandRing1
								{
									OFFSET 12.147018 0.011063 -2.216636
									CHANNELS 3 Xrotation Yrotation Zrotation
									JOINT mixamorig:LeftHandRing2
									{
										OFFSET 3.601181 0.000320 0.000033
										CHANNELS 3 Xrotation Yrotation Zrotation
										JOINT mixamorig:LeftHandRing3
										{
											OFFSET 3.307320 0.000305 -0.000023
											CHANNELS 3 Xrotation Yrotation Zrotation
											JOINT mixamorig:LeftHandRing4
											{
												OFFSET 3.660118 0.000320 0.000000
												CHANNELS 3 Xrotation Yrotation Zrotation
												End Site
												{
													OFFSET 3.660103 0.000229 0.005616
												}
											}
										}
									}
								}
								JOINT mixamorig:LeftHandPinky1
								{
									OFFSET 10.908218 -0.225174 -4.725837
									CHANNELS 3 Xrotation Yrotation Zrotation
									JOINT mixamorig:LeftHandPinky2
									{
										OFFSET 4.136658 0.000351 0.001166
										CHANNELS 3 Xrotation Yrotation Zrotation
										JOINT mixamorig:LeftHandPinky3
										{
											OFFSET 2.594826 0.000244 -0.001180
											CHANNELS 3 Xrotation Yrotation Zrotation
											JOINT mixamorig:LeftHandPinky4
											{
												OFFSET 2.923874 0.000244 0.000018
												CHANNELS 3 Xrotation Yrotation Zrotation
												End Site
												{
													OFFSET 2.923851 0.000275 -0.003346
												}
											}
										}
									}
								}
							}
						}
					}
				}
				JOINT mixamorig:RightShoulder
				{
					OFFSET -6.106495 9.109970 0.705565
					CHANNELS 3 Xrotation Yrotation Zrotation
					JOINT mixamorig:RightArm
					{
						OFFSET -12.655020 -0.267136 -2.600890
						CHANNELS 3 Xrotation Yrotation Zrotation
						JOINT mixamorig:RightForeArm
						{
							OFFSET -27.404675 -0.002365 0.000019
							CHANNELS 3 Xrotation Yrotation Zrotation
							JOINT mixamorig:RightHand
							{
								OFFSET -27.614464 -0.002396 0.000031
								CHANNELS 3 Xrotation Yrotation Zrotation
								JOINT mixamorig:RightHandThumb1
								{
									OFFSET -3.788620 -2.167480 3.002977
									CHANNELS 3 Xrotation Yrotation Zrotation
									JOINT mixamorig:RightHandThumb2
									{
										OFFSET -3.675247 -2.122314 2.122009
										CHANNELS 3 Xrotation Yrotation Zrotation
										JOINT mixamorig:RightHandThumb3
										{
											OFFSET -3.394188 -1.960129 1.959755
											CHANNELS 3 Xrotation Yrotation Zrotation
											JOINT mixamorig:RightHandThumb4
											{
												OFFSET -2.679230 -1.547195 1.546953
												CHANNELS 3 Xrotation Yrotation Zrotation
												End Site
												{
													OFFSET -2.398781 -1.531693 1.965949
												}
											}
										}
									}
								}
								JOINT mixamorig:RightHandIndex1
								{
									OFFSET -12.266594 -0.232895 2.822051
									CHANNELS 3 Xrotation Yrotation Zrotation
									JOINT mixamorig:RightHandIndex2
									{
										OFFSET -3.891968 -0.000336 0.000040
										CHANNELS 3 Xrotation Yrotation Zrotation
										JOINT mixamorig:RightHandIndex3
										{
											OFFSET -3.415161 -0.000305 -0.000006
											CHANNELS 3 Xrotation Yrotation Zrotation
											JOINT mixamorig:RightHandIndex4
											{
												OFFSET -3.077988 -0.000275 0.000006
												CHANNELS 3 Xrotation Yrotation Zrotation
												End Site
												{
													OFFSET -3.077980 0.000229 -0.008454
												}
											}
										}
									}
								}
								JOINT mixamorig:RightHandMiddle1
								{
									OFFSET -12.775528 -0.001114 0.000025
									CHANNELS 3 Xrotation Yrotation Zrotation
									JOINT mixamorig:RightHandMiddle2
									{
										OFFSET -3.613968 -0.000320 0.000005
										CHANNELS 3 Xrotation Yrotation Zrotation
										JOINT mixamorig:RightHandMiddle3
										{
											OFFSET -3.459763 -0.000305 -0.000025
											CHANNELS 3 Xrotation Yrotation Zrotation
											JOINT mixamorig:RightHandMiddle4
											{
												OFFSET -3.680191 -0.000320 0.000034
												CHANNELS 3 Xrotation Yrotation Zrotation
												End Site
												{
													OFFSET -3.680168 -0.000031 0.012581
												}
											}
										}
									}
								}
								JOINT mixamorig:RightHandRing1
								{
									OFFSET -12.147003 0.008942 -2.216624
									CHANNELS 3 Xrotation Yrotation Zrotation
									JOINT mixamorig:RightHandRing2
									{
										OFFSET -3.601196 -0.000320 0.000037
										CHANNELS 3 Xrotation Yrotation Zrotation
										JOINT mixamorig:RightHandRing3
										{
											OFFSET -3.307312 -0.000290 -0.000019
											CHANNELS 3 Xrotation Yrotation Zrotation
											JOINT mixamorig:RightHandRing4
											{
												OFFSET -3.660118 -0.000320 0.000002
												CHANNELS 3 Xrotation Yrotation Zrotation
												End Site
												{
													OFFSET -3.660110 0.000107 0.002180
												}
											}
										}
									}
								}
								JOINT mixamorig:RightHandPinky1
								{
									OFFSET -10.908173 -0.227081 -4.725826
									CHANNELS 3 Xrotation Yrotation Zrotation
									JOINT mixamorig:RightHandPinky2
									{
										OFFSET -4.136642 -0.000366 0.000029
										CHANNELS 3 Xrotation Yrotation Zrotation
										JOINT mixamorig:RightHandPinky3
										{
											OFFSET -2.594841 -0.000229 -0.000036
											CHANNELS 3 Xrotation Yrotation Zrotation
											JOINT mixamorig:RightHandPinky4
											{
												OFFSET -2.923874 -0.000259 0.000021
												CHANNELS 3 Xrotation Yrotation Zrotation
												End Site
												{
													OFFSET -2.923820 0.000336 -0.012876
												}
											}
										}
									}
								}
							}
						}
					}
				}
			}
		}
	}
	JOINT mixamorig:LeftUpLeg
	{
		OFFSET 9.124458 -6.656387 -0.055378
		CHANNELS 3 Xrotation Yrotation Zrotation
		JOINT mixamorig:LeftLeg
		{
			OFFSET 0.244681 -40.595421 -0.515619
			CHANNELS 3 Xrotation Yrotation Zrotation
			JOINT mixamorig:LeftFoot
			{
				OFFSET -0.244669 -42.047928 -2.059156
				CHANNELS 3 Xrotation Yrotation Zrotation
				JOINT mixamorig:LeftToeBase
				{
					OFFSET 0.373535 -7.208548 13.966561
					CHANNELS 3 Xrotation Yrotation Zrotation
					JOINT mixamorig:LeftToe_End
					{
						OFFSET -0.142059 -0.175224 9.997455
						CHANNELS 3 Xrotation Yrotation Zrotation
						End Site
						{
							OFFSET -0.142060 -0.175223 9.997459
						}
					}
				}
			}
		}
	}
	JOINT mixamorig:RightUpLeg
	{
		OFFSET -9.124448 -6.656403 -0.055378
		CHANNELS 3 Xrotation Yrotation Zrotation
		JOINT mixamorig:RightLeg
		{
			OFFSET -0.244680 -40.595459 -0.514290
			CHANNELS 3 Xrotation Yrotation Zrotation
			JOINT mixamorig:RightFoot
			{
				OFFSET 0.244670 -42.047859 -2.060535
				CHANNELS 3 Xrotation Yrotation Zrotation
				JOINT mixamorig:RightToeBase
				{
					OFFSET -0.373535 -7.208539 13.966558
					CHANNELS 3 Xrotation Yrotation Zrotation
					JOINT mixamorig:RightToe_End
					{
						OFFSET 0.141798 -0.175009 9.997463
						CHANNELS 3 Xrotation Yrotation Zrotation
						End Site
						{
							OFFSET 0.141798 -0.175009 9.997467
						}
					}
				}
			}
		}
	}
}
MOTION
Frames: 4
Frame Time: 0.033333
-0.175427 95.576500 0.164334 -4.861983 34.613572 1.564296 8.364724 12.657161 4.019640 1.053948 1.802946 -8.042237 1.261046 1.682033 -8.040572 -6.195706 -6.117730 -7.546437 -1.195404 -42.510469 19.791832 -0.000001 -0.000000 0.000000 -0.053776 2.666453 2.758867 50.667235 -34.643396 -20.584484 0.029376 -80.175335 0.024741 17.922234 -7.967358 27.573371 -4.236746 8.029387 22.834142 4.283889 12.077408 1.065097 -0.330987 4.233573 2.803839 0.000005 -0.000003 0.000005 0.133473 -1.351177 11.276009 0.000002 -0.000695 0.000000 0.001901 0.163003 -1.350972 -0.000000 0.000000 -0.000000 0.065151 -0.946255 7.866397 0.004480 0.249461 -2.067578 0.029129 0.634543 -5.265701 -0.000001 0.000001 -0.000002 0.014120 -0.441180 3.662425 0.031918 0.663822 -5.517113 0.095084 1.143673 -9.521776 0.000003 0.000002 0.000001 -0.040877 4.032324 0.826591 0.060493 -3.092897 -8.855662 0.173735 1.566700 -12.874889 0.000003 -0.000002 0.000002 1.921537 7.577975 -18.012959 5.952649 17.682661 15.219721 -0.001390 15.604824 0.000191 48.161242 -3.626232 33.742063 -2.465202 -0.487561 -24.602287 5.209363 -14.946059 -0.666256 -0.196515 -12.358004 -3.363454 0.000001 -0.000000 -0.000001 0.655014 -2.950357 25.014823 0.485636 -2.556316 21.495293 0.439853 -2.437512 20.444706 -0.000000 0.000000 0.000000 0.766098 -3.177170 27.096711 0.481241 -2.545635 21.396614 0.536124 -2.681323 22.599938 -0.000000 -0.000000 0.000001 0.929523 -3.477623 29.907080 0.461363 -2.493857 20.947669 0.671764 -2.986335 25.345970 0.000001 -0.000001 0.000004 1.084380 -3.733340 32.370589 0.429277 -2.408637 20.201584 0.801589 -3.246284 27.727261 -0.000000 0.000000 0.000001 -14.061608 -4.966736 8.939298 30.203988 -9.572669 1.860243 -14.750784 -10.068921 -8.699165 -0.742248 0.000001 0.000005 0.000000 0.000001 0.000000 -11.817291 -3.809742 -11.160953 31.213760 -10.045601 6.019038 -9.618873 -22.405165 8.065010 -2.465573 -0.000015 0.000021 0.000000 -0.000000 -0.000000 
-2.117289 94.886681 0.824569 -6.459663 36.590727 2.787470 11.076285 13.415876 4.076068 1.663028 1.935089 -8.606055 1.900281 1.758590 -8.595671 -7.557942 -6.801032 -8.140916 -1.838720 -46.479789 19.581927 -0.000001 -0.000000 0.000000 0.048948 2.511062 1.319684 45.044954 -31.520947 -19.266386 0.026565 -79.177848 0.021953 20.911676 -6.287234 28.021865 -4.246606 8.060854 22.840398 4.285250 12.093957 1.066310 -0.330245 4.241820 2.804656 0.000004 0.000004 0.000003 0.126611 -1.316291 10.981110 0.000004 -0.000709 0.000006 0.002423 0.183708 -1.522429 0.000001 0.000001 -0.000003 0.059051 -0.901018 7.488007 0.005142 0.267185 -2.214480 0.031028 0.654931 -5.435503 0.000000 -0.000002 0.000000 0.010650 -0.382751 3.177253 0.034998 0.695001 -5.776813 0.099555 1.170048 -9.743580 -0.000003 -0.000001 -0.000001 -0.000019 4.101842 0.250758 0.066827 -3.051985 -9.198241 0.180963 1.597870 -13.140341 -0.000000 0.000002 -0.000000 1.725760 6.921855 -17.204038 -13.194692 9.335796 17.636532 -0.000594 6.844529 0.000029 53.653038 -17.190083 31.740118 -2.936570 -1.881292 -24.839279 5.274050 -15.684932 -0.714266 -0.128109 -13.258951 -3.447580 0.000002 -0.000004 -0.000001 0.832130 -3.302808 28.260476 0.449452 -2.462556 20.668987 0.425916 -2.399769 20.114157 -0.000000 0.000001 -0.000002 0.993059 -3.585457 30.942184 0.509934 -2.617563 22.033391 0.477393 -2.535839 21.309905 -0.000000 0.000001 0.000000 1.229291 -3.952114 34.530243 0.571215 -2.763507 23.341850 0.550581 -2.716136 22.910247 -0.000005 0.000002 0.000000 1.452708 -4.257721 37.651961 0.600322 -2.830046 23.941650 0.620873 -2.877055 24.344620 -0.000004 0.000005 -0.000000 -14.790911 -2.781544 9.123968 31.736710 -9.264498 5.080238 -15.654621 -13.467841 -11.784411 -0.781075 -0.000015 0.000001 0.000000 -0.000001 0.000000 -12.864882 -6.505734 -10.900433 35.533444 -10.031049 5.578659 -12.475094 -21.116921 7.339450 -1.761279 -0.000012 0.000015 -0.000000 0.000000 -0.000000 
-4.004718 93.856873 1.623434 -8.091030 38.547631 3.507380 13.323436 13.213403 3.979849 1.896865 1.938662 -8.415434 2.127063 1.729142 -8.405997 -8.266212 -7.241419 -8.319209 -4.537345 -48.822674 17.711618 -0.000000 0.000001 -0.000000 0.188352 1.336507 1.106799 38.377897 -29.498375 -22.111769 0.021817 -76.860938 0.017308 20.668711 -4.208486 27.879797 -4.280374 8.168433 22.861801 4.289853 12.150486 1.070524 -0.327662 4.270023 2.807393 0.000001 0.000004 0.000004 0.122594 -1.295458 10.805235 0.000003 -0.000700 0.000010 0.002962 0.203333 -1.685128 0.000001 0.000000 0.000001 0.055023 -0.869890 7.227789 0.005768 0.283105 -2.346650 0.032809 0.673408 -5.589247 0.000002 0.000004 0.000001 0.008323 -0.338513 2.810213 0.038007 0.724095 -6.019228 0.103376 1.192041 -9.928527 0.000001 -0.000001 -0.000000 0.032854 4.156677 -0.205964 0.073072 -3.013205 -9.523317 0.186781 1.622613 -13.351016 0.000002 0.000001 -0.000000 1.276818 5.267648 -16.356100 -24.390045 4.027308 17.293802 -0.000186 2.139449 -0.000000 42.288597 -27.122449 17.786405 -2.735954 -1.290534 -24.737354 5.246679 -15.371611 -0.693982 -0.156989 -12.876896 -3.412026 0.000000 0.000001 -0.000003 0.978647 -3.561388 30.707315 0.466430 -2.507026 21.060287 0.397965 -2.322155 19.436075 -0.000000 0.000004 0.000005 1.099545 -3.756995 32.605066 0.591785 -2.811133 23.761270 0.442210 -2.443822 20.500272 0.000001 -0.000003 -0.000003 1.278101 -4.021930 35.232332 0.743825 -3.132843 26.695675 0.506134 -2.608598 21.953375 0.000001 0.000002 0.000001 1.447654 -4.251176 37.583959 0.852806 -3.340588 28.628844 0.564030 -2.748171 23.186257 -0.000002 -0.000001 0.000000 -16.077150 -1.873461 9.817529 34.714826 -9.214833 7.971861 -17.264551 -14.761813 -14.464034 -0.835990 -0.000004 0.000002 -0.000000 0.000001 -0.000000 -13.913908 -8.753529 -9.902372 40.213193 -10.060707 5.150600 -15.585508 -20.873883 6.612170 -1.541899 -0.000017 0.000013 -0.000000 0.000000 0.000000 
-5.696882 92.607918 2.532138 -10.176638 40.204088 3.805761 15.245372 11.866157 3.697901 1.785346 1.778164 -7.395834 1.971678 1.565936 -7.395364 -8.245875 -7.381324 -7.858628 -8.163927 -48.881977 15.176732 -0.000001 0.000000 -0.000000 0.461081 -0.844110 1.144882 31.789169 -27.747891 -28.619130 0.019414 -75.324897 0.014984 11.555434 -1.830129 26.928608 -4.344338 8.371771 22.902466 4.298552 12.257335 1.078454 -0.322807 4.323337 2.812592 0.000005 0.000008 0.000004 0.122218 -1.293473 10.788443 0.000007 -0.000694 0.000016 0.003491 0.220687 -1.828933 -0.000002 -0.000002 0.000002 0.053406 -0.857021 7.120389 0.006322 0.296299 -2.455919 0.034449 0.689973 -5.727225 0.000003 0.000004 0.000000 0.007065 -0.311894 2.589449 0.040709 0.749300 -6.229336 0.106694 1.210904 -10.087334 0.000001 0.000001 0.000004 0.055734 4.194288 -0.520330 0.078782 -2.978988 -9.810616 0.191687 1.643159 -13.526242 0.000004 0.000001 0.000003 0.775148 3.294873 -15.336213 -29.387944 2.893577 16.490496 -0.000251 2.969567 -0.000003 22.952236 -25.953679 -1.965562 -2.241227 0.181416 -24.492719 5.178201 -14.591792 -0.642968 -0.229695 -11.926030 -3.322809 -0.000002 0.000002 0.000002 0.801032 -3.244427 27.716382 0.539671 -2.689275 22.675094 0.378140 -2.265223 18.940700 0.000001 0.000000 -0.000001 0.914310 -3.451005 29.659639 0.692680 -3.029609 25.740789 0.447635 -2.458262 20.626972 0.000003 -0.000001 0.000000 1.081145 -3.728232 32.319082 0.886918 -3.402043 29.204721 0.544622 -2.702013 22.784159 -0.000001 -0.000000 -0.000001 1.239303 -3.966589 34.677113 1.035907 -3.655509 31.628270 0.629306 -2.895591 24.512173 -0.000000 0.000000 -0.000001 -17.185690 -2.317187 11.541965 38.662781 -9.523381 9.792073 -19.142327 -14.166284 -16.327279 -0.950086 -0.000003 -0.000003 -0.000000 -0.000000 0.000000 -14.063219 -9.918857 -8.120905 44.573429 -10.114543 5.548595 -18.720724 -21.571109 5.550241 -1.534066 -0.000005 0.000012 -0.000000 0.000001 -0.000000 
